# xmcd
#
# Track frame offsets: 
#        150
#        18163
#        38546
#        49085
#        66905
#        80540
#        101045
#        112410
#        125910
#        143301
#
# Disc length: 2018 seconds
#
# Revision: 0
# Processed by: cddbd v1.5.2PL0 Copyright (c) Steve Scherf et al.
# Submitted via: ExactAudioCopy v0.95b3
#
DISCID=8607e00a
DTITLE=Will Scott - Solo Electric Blues
DYEAR=1998
DGENRE=blues
TTITLE0=Jumper on the Line
TTITLE1=Peaches
TTITLE2=Wish I Was in Heaven
TTITLE3=Slightly Used Shoes
TTITLE4=Goin' Down th River
TTITLE5=Loneliness
TTITLE6=Love and Pain
TTITLE7=Trimmed and Burnin'
TTITLE8=Long Time Since
TTITLE9=She's Gone
EXTD=
EXTT0=
EXTT1=
EXTT2=
EXTT3=
EXTT4=
EXTT5=
EXTT6=
EXTT7=
EXTT8=
EXTT9=
PLAYORDER=
